<?xml version="1.0" standalone="no"?><!DOCTYPE svg PUBLIC "-//W3C//DTD SVG 1.1//EN" "http://www.w3.org/Graphics/SVG/1.1/DTD/svg11.dtd"><svg height="1024" node-id="1" sillyvg="true" template-height="1024" template-width="1024" version="1.1" viewBox="0 0 1024 1024" width="1024" xmlns="http://www.w3.org/2000/svg" xmlns:xlink="http://www.w3.org/1999/xlink"><defs node-id="69"><clipPath id="master_svg0_28_229" node-id="3"><path d="M 0.00 0.00 L 1024.00 0.00 L 1024.00 1024.00 L 0.00 1024.00 Z" fill="#000000" fill-rule="nonzero" node-id="72" stroke="none" target-height="1024" target-width="1024" target-x="0" target-y="0"></path></clipPath></defs><g node-id="232"><g clip-path="url(#master_svg0_28_229)" group-id="1" id="sillyvg_g_1" node-id="78"><path d="M 974.50 192.50 L 981.20 188.10 L 987.60 183.20 L 993.60 177.80 L 1001.70 168.80 L 1008.90 158.70 L 1014.80 147.70 L 1019.40 135.60 L 1021.50 127.90 L 1022.90 120.40 L 1023.70 112.80 L 1024.00 105.30 L 1023.70 97.70 L 1022.80 90.30 L 1021.40 83.00 L 1019.50 75.80 L 1017.00 68.70 L 1014.10 61.90 L 1010.70 55.30 L 1006.70 49.00 L 1002.40 42.90 L 997.60 37.20 L 992.40 31.90 L 986.70 26.80 L 980.70 22.30 L 974.30 18.10 L 967.50 14.50 L 960.30 11.20 L 953.50 8.80 L 946.80 6.90 L 940.00 5.40 L 933.30 4.50 L 926.50 4.00 L 919.70 4.00 L 913.10 4.40 L 906.40 5.20 L 899.90 6.50 L 893.50 8.20 L 887.30 10.30 L 881.10 12.80 L 875.20 15.70 L 869.50 19.00 L 863.90 22.70 L 858.60 26.70 L 853.60 31.00 L 848.90 35.70 L 844.40 40.80 L 840.30 46.20 L 836.50 51.80 L 833.10 57.80 L 830.00 64.00 L 827.40 70.70 L 825.00 78.10 L 823.20 85.60 L 821.90 93.20 L 821.30 100.80 L 821.30 108.50 L 821.80 116.20 L 822.90 123.80 L 824.60 131.30 L 828.30 143.50 L 830.00 153.00 L 830.20 157.80 L 829.60 167.40 L 827.40 176.80 L 825.70 181.30 L 823.60 185.60 L 821.20 189.90 L 797.90 222.80 L 787.20 239.10 L 766.60 272.90 L 756.20 291.20 L 736.20 328.60 L 726.40 348.10 L 707.80 387.60 L 699.00 407.60 L 690.50 427.90 L 682.50 447.90 L 675.10 467.80 L 667.60 489.30 L 661.00 509.40 L 655.40 528.10 L 650.70 545.60 L 646.70 561.90 L 643.10 579.30 L 640.20 595.40 L 638.20 610.20 L 636.80 623.90 L 636.00 636.40 L 635.80 647.70 L 636.00 658.10 L 636.70 667.70 L 637.70 676.60 L 639.10 684.70 L 640.80 692.20 L 643.00 700.10 L 645.60 707.30 L 648.50 713.90 L 651.70 719.80 L 655.10 725.10 L 658.70 730.00 L 663.00 734.60 L 667.40 738.80 L 672.10 742.40 L 677.00 745.60 L 682.30 748.30 L 687.80 750.60 L 693.50 752.40 L 699.20 753.70 L 705.00 754.40 L 711.00 754.60 L 717.10 754.30 L 723.30 753.50 L 729.20 752.10 L 735.20 750.20 L 741.50 747.70 L 747.90 744.50 L 754.50 740.70 L 761.30 736.10 L 767.40 731.40 L 773.70 726.10 L 780.20 719.90 L 786.90 713.00 L 793.70 705.20 L 800.80 696.40 L 808.30 686.30 L 816.00 675.00 L 824.00 662.30 L 832.10 648.10 L 840.50 632.50 L 848.00 617.40 L 855.60 601.00 L 863.30 583.00 L 871.20 563.40 L 879.30 542.10 L 886.30 522.10 L 893.10 501.60 L 899.70 480.70 L 911.60 438.60 L 922.00 396.20 L 930.70 354.70 L 934.50 334.00 L 937.70 314.10 L 940.40 294.80 L 942.70 275.50 L 946.00 235.30 L 948.10 225.80 L 951.70 216.90 L 956.70 208.70 L 959.60 205.00 L 966.50 198.20 L 974.50 192.50 Z" fill="#d9e7eb" fill-rule="nonzero" group-id="1,2" node-id="82" stroke="none" target-height="750.6" target-width="388.2" target-x="635.8" target-y="4"></path><path d="M 959.20 205.50 L 956.20 209.30 L 951.40 217.40 L 948.00 226.20 L 946.80 230.80 L 946.00 235.40 L 943.20 270.30 L 941.40 286.60 L 791.70 232.10 L 800.80 218.50 L 821.10 190.00 L 823.50 185.90 L 825.50 181.70 L 828.50 172.70 L 830.10 163.40 L 830.30 158.60 L 959.20 205.50 Z" fill="#c5d3dd" fill-rule="nonzero" group-id="1,3,31" node-id="89" stroke="none" target-height="128" target-width="167.5" target-x="791.7" target-y="158.6"></path><path d="M 879.30 542.10 L 871.20 563.40 L 863.30 583.00 L 855.60 601.00 L 848.00 617.40 L 840.50 632.50 L 832.10 648.10 L 823.90 662.30 L 816.00 675.00 L 808.30 686.30 L 800.80 696.40 L 793.70 705.20 L 786.80 713.00 L 780.20 719.90 L 773.70 726.10 L 767.40 731.40 L 761.30 736.10 L 754.50 740.70 L 747.90 744.50 L 741.50 747.70 L 735.20 750.20 L 729.20 752.10 L 723.30 753.50 L 717.00 754.30 L 711.00 754.60 L 705.00 754.40 L 699.20 753.70 L 693.50 752.40 L 687.80 750.60 L 682.00 748.20 L 676.40 745.20 L 671.20 741.80 L 666.40 737.90 L 661.80 733.40 L 657.50 728.40 L 663.30 726.90 L 669.30 724.80 L 675.50 722.20 L 681.80 718.90 L 688.30 714.90 L 695.10 710.20 L 701.10 705.50 L 707.30 700.10 L 713.70 693.90 L 720.30 686.90 L 727.10 679.10 L 734.10 670.30 L 741.50 660.20 L 749.10 648.90 L 756.90 636.30 L 764.90 622.30 L 773.20 606.70 L 780.60 591.80 L 788.10 575.50 L 795.70 557.80 L 803.50 538.40 L 811.40 517.40 L 818.50 497.40 L 825.30 476.90 L 838.00 435.00 L 849.10 392.70 L 858.70 350.60 L 866.60 309.30 L 869.80 289.40 L 872.50 270.20 L 874.80 250.80 L 878.10 210.60 L 879.00 205.80 L 880.20 201.10 L 883.80 192.20 L 888.80 184.10 L 891.80 180.30 L 898.60 173.50 L 902.50 170.50 L 913.40 163.40 L 919.70 158.50 L 925.70 153.10 L 929.90 148.80 L 937.60 139.20 L 944.10 128.60 L 946.90 123.00 L 951.60 110.90 L 953.60 103.40 L 955.00 96.00 L 955.90 88.60 L 956.20 81.30 L 955.90 73.90 L 955.10 66.60 L 953.80 59.40 L 952.00 52.40 L 949.70 45.50 L 947.00 38.80 L 943.70 32.30 L 940.00 26.00 L 935.90 20.00 L 931.40 14.40 L 926.40 9.00 L 921.00 4.00 L 927.70 4.10 L 934.40 4.60 L 941.00 5.60 L 947.60 7.10 L 954.00 8.90 L 960.30 11.20 L 967.50 14.50 L 974.30 18.10 L 980.70 22.30 L 986.70 26.80 L 992.40 31.90 L 997.60 37.20 L 1002.40 42.90 L 1006.70 49.00 L 1010.70 55.30 L 1014.10 61.90 L 1017.00 68.70 L 1019.50 75.70 L 1021.40 82.90 L 1022.80 90.20 L 1023.70 97.70 L 1024.00 105.30 L 1023.70 112.80 L 1022.90 120.40 L 1021.50 127.90 L 1019.40 135.60 L 1017.20 141.80 L 1012.00 153.30 L 1005.40 163.90 L 997.80 173.50 L 993.60 177.80 L 987.50 183.20 L 981.20 188.10 L 970.30 195.20 L 966.50 198.20 L 959.60 205.00 L 956.60 208.70 L 951.70 216.90 L 948.10 225.80 L 946.80 230.50 L 946.00 235.30 L 942.70 275.50 L 940.40 294.90 L 937.70 314.10 L 934.50 334.00 L 926.60 375.30 L 917.00 417.40 L 905.80 459.70 L 893.10 501.60 L 886.30 522.10 L 879.30 542.10 Z" fill="#c5d3dd" fill-rule="nonzero" group-id="1,3,32" node-id="94" stroke="none" target-height="750.6" target-width="366.5" target-x="657.5" target-y="4"></path><path d="M 945.10 246.40 L 809.00 196.90 L 805.80 195.50 L 803.00 193.70 L 800.40 191.60 L 798.20 189.20 L 796.30 186.60 L 794.70 183.80 L 793.50 180.80 L 792.70 177.60 L 792.40 174.40 L 792.40 171.10 L 792.90 167.80 L 793.90 164.40 L 797.60 154.80 L 799.40 151.90 L 801.50 149.40 L 803.90 147.10 L 806.50 145.20 L 809.30 143.60 L 812.30 142.50 L 815.50 141.70 L 818.80 141.30 L 822.00 141.30 L 825.40 141.80 L 828.70 142.80 L 964.80 192.30 L 967.90 193.70 L 970.80 195.50 L 973.30 197.60 L 975.60 200.00 L 977.50 202.60 L 979.10 205.40 L 980.20 208.40 L 981.00 211.60 L 981.40 214.90 L 981.40 218.10 L 980.90 221.50 L 979.90 224.80 L 976.10 234.40 L 974.40 237.30 L 972.30 239.80 L 969.90 242.10 L 967.30 244.00 L 964.50 245.60 L 961.40 246.70 L 958.30 247.50 L 955.00 247.90 L 951.70 247.90 L 948.40 247.40 L 945.10 246.40 Z" fill="#f5f7f8" fill-rule="nonzero" group-id="1,4" node-id="100" stroke="none" target-height="106.59999" target-width="189" target-x="792.4" target-y="141.3"></path><path d="M 979.90 224.80 L 976.10 234.40 L 974.40 237.30 L 972.30 239.80 L 969.90 242.10 L 967.30 244.00 L 964.50 245.60 L 961.40 246.70 L 958.30 247.50 L 955.00 247.90 L 951.70 247.90 L 948.40 247.40 L 945.10 246.40 L 904.80 231.70 L 908.10 232.70 L 911.40 233.20 L 914.70 233.20 L 918.00 232.90 L 921.10 232.10 L 924.10 230.90 L 927.00 229.30 L 929.60 227.40 L 932.00 225.20 L 934.10 222.60 L 935.80 219.80 L 937.20 216.60 L 939.60 210.10 L 940.50 206.80 L 941.00 203.50 L 941.10 200.20 L 940.70 196.90 L 939.90 193.80 L 938.70 190.80 L 937.20 187.90 L 935.30 185.30 L 933.00 182.90 L 930.50 180.80 L 927.60 179.10 L 924.40 177.60 L 964.80 192.30 L 967.90 193.70 L 970.80 195.50 L 973.30 197.60 L 975.60 200.00 L 977.50 202.60 L 979.10 205.40 L 980.20 208.40 L 981.00 211.60 L 981.40 214.90 L 981.40 218.10 L 980.90 221.50 L 979.90 224.80 Z" fill="#d9e7eb" fill-rule="nonzero" group-id="1,5" node-id="105" stroke="none" target-height="70.29999" target-width="76.60004" target-x="904.8" target-y="177.6"></path><path d="M 939.80 299.20 L 935.20 329.80 L 949.10 332.80 L 959.50 335.40 L 968.80 338.20 L 975.20 340.50 L 984.00 344.60 L 975.60 348.50 L 960.10 353.50 L 948.80 356.30 L 934.50 359.30 L 916.90 362.30 L 899.20 364.80 L 878.60 367.10 L 854.70 369.20 L 817.80 371.10 L 796.80 371.70 L 755.00 371.80 L 718.70 370.60 L 700.70 369.60 L 667.40 366.90 L 651.10 365.10 L 622.10 360.90 L 619.30 360.70 L 616.60 361.00 L 614.10 361.70 L 611.70 362.80 L 609.60 364.30 L 607.70 366.20 L 606.10 368.40 L 605.00 370.80 L 604.30 373.50 L 604.10 376.40 L 604.30 379.00 L 605.00 381.60 L 606.20 384.00 L 607.70 386.10 L 609.60 388.00 L 611.70 389.50 L 614.20 390.70 L 616.90 391.40 L 647.00 395.80 L 663.90 397.60 L 698.40 400.50 L 717.00 401.50 L 754.50 402.70 L 794.70 402.60 L 834.40 401.30 L 854.00 400.20 L 890.20 397.00 L 907.70 394.90 L 923.90 392.60 L 938.70 390.00 L 952.80 387.10 L 964.90 384.20 L 975.20 381.30 L 983.90 378.30 L 991.20 375.30 L 997.40 372.40 L 1002.40 369.40 L 1006.60 366.40 L 1010.00 363.40 L 1012.70 360.40 L 1014.80 357.40 L 1016.40 354.40 L 1017.50 351.20 L 1018.20 347.90 L 1018.40 344.50 L 1018.20 341.10 L 1017.50 337.90 L 1016.40 334.70 L 1014.80 331.70 L 1012.80 328.70 L 1010.10 325.70 L 1006.80 322.80 L 1002.70 319.80 L 997.60 316.80 L 991.60 313.80 L 984.30 310.90 L 975.80 307.90 L 965.60 305.00 L 953.70 302.10 L 939.80 299.20 Z" fill="#f5f7f8" fill-rule="nonzero" group-id="1,6" node-id="110" stroke="none" target-height="103.5" target-width="414.30005" target-x="604.1" target-y="299.2"></path><path d="M 867.70 314.00 L 867.40 316.80 L 866.70 319.40 L 865.50 321.80 L 864.00 323.90 L 862.20 325.80 L 860.00 327.30 L 857.60 328.40 L 855.00 329.10 L 852.20 329.40 L 836.80 329.20 L 807.40 327.90 L 779.20 325.20 L 753.10 321.20 L 741.10 318.80 L 730.10 316.20 L 719.20 313.10 L 709.90 310.00 L 701.90 306.80 L 695.10 303.50 L 689.30 300.30 L 684.50 297.00 L 680.30 293.40 L 676.80 289.80 L 674.10 286.20 L 672.10 282.50 L 670.70 278.60 L 669.80 274.70 L 669.50 270.60 L 669.80 266.50 L 670.70 262.60 L 672.10 259.00 L 674.00 255.50 L 676.30 252.20 L 679.10 249.10 L 682.40 246.10 L 686.10 243.20 L 691.40 239.80 L 697.40 236.60 L 704.00 233.50 L 718.00 228.40 L 725.70 226.10 L 737.40 223.10 L 749.30 220.60 L 761.30 218.50 L 784.20 215.40 L 794.50 214.40 L 803.90 214.10 L 792.90 230.30 L 782.40 246.70 L 758.60 250.30 L 749.10 252.30 L 731.50 256.60 L 724.90 258.70 L 713.10 263.20 L 705.30 267.40 L 701.20 270.50 L 704.90 273.50 L 707.90 275.30 L 718.00 280.00 L 725.50 282.70 L 733.90 285.30 L 745.00 288.00 L 754.90 290.10 L 777.00 293.70 L 800.70 296.30 L 826.00 298.00 L 855.00 298.80 L 857.60 299.50 L 860.00 300.60 L 862.20 302.20 L 864.00 304.00 L 865.50 306.20 L 866.70 308.60 L 867.40 311.10 L 867.70 314.00 Z" fill="#f5f7f8" fill-rule="nonzero" group-id="1,7" node-id="115" stroke="none" target-height="115.29999" target-width="198.20001" target-x="669.5" target-y="214.1"></path><path d="M 429.70 342.50 L 465.20 440.10 L 466.60 444.90 L 467.60 449.60 L 468.00 454.30 L 468.00 459.00 L 467.50 463.70 L 466.60 468.20 L 465.30 472.60 L 463.50 476.90 L 461.40 481.00 L 458.90 484.90 L 456.00 488.50 L 452.70 491.90 L 449.10 494.90 L 445.20 497.60 L 441.00 499.90 L 436.30 501.80 L 431.60 503.30 L 426.80 504.30 L 422.10 504.70 L 417.40 504.70 L 412.70 504.20 L 408.20 503.30 L 403.80 502.00 L 399.50 500.20 L 395.40 498.10 L 391.50 495.60 L 387.90 492.70 L 384.60 489.40 L 381.50 485.80 L 378.90 481.90 L 376.50 477.70 L 374.60 473.00 L 339.10 375.50 L 337.60 370.70 L 336.70 366.00 L 336.20 361.30 L 336.20 356.60 L 336.70 351.90 L 337.60 347.40 L 338.90 343.00 L 340.70 338.70 L 342.80 334.60 L 345.40 330.70 L 348.30 327.10 L 351.60 323.70 L 355.10 320.70 L 359.00 318.00 L 363.30 315.70 L 367.90 313.70 L 372.70 312.30 L 377.40 311.30 L 382.10 310.90 L 386.80 310.90 L 391.50 311.40 L 396.00 312.30 L 400.40 313.60 L 404.70 315.40 L 408.80 317.50 L 412.70 320.00 L 416.30 322.90 L 419.70 326.20 L 422.70 329.80 L 425.40 333.70 L 427.70 337.90 L 429.70 342.50 Z" fill="#fcb44d" fill-rule="nonzero" group-id="1,8" node-id="120" stroke="none" target-height="193.80002" target-width="131.79999" target-x="336.2" target-y="310.9"></path><path d="M 367.90 313.70 L 372.50 312.30 L 377.10 311.40 L 381.80 310.90 L 386.50 310.90 L 391.20 311.30 L 395.80 312.20 L 400.30 313.50 L 404.70 315.40 L 409.00 317.60 L 412.90 320.20 L 416.60 323.10 L 419.90 326.50 L 422.90 330.10 L 425.50 334.00 L 427.80 338.10 L 429.60 342.60 L 465.10 440.10 L 466.60 444.90 L 467.60 449.60 L 468.00 454.30 L 468.00 459.00 L 467.50 463.70 L 466.60 468.20 L 465.30 472.60 L 463.50 476.90 L 461.40 481.00 L 458.90 484.90 L 456.00 488.50 L 452.70 491.90 L 449.10 494.90 L 445.20 497.60 L 441.00 499.90 L 436.40 501.90 L 431.10 503.40 L 425.60 504.40 L 420.20 504.80 L 414.60 504.50 L 417.60 501.10 L 422.40 493.80 L 425.80 485.70 L 426.90 481.50 L 427.60 477.10 L 428.00 472.60 L 427.90 468.20 L 427.40 463.70 L 426.50 459.20 L 425.10 454.70 L 389.60 357.10 L 387.70 352.70 L 385.50 348.50 L 382.90 344.70 L 379.90 341.00 L 376.50 337.70 L 372.90 334.80 L 368.90 332.20 L 364.70 329.90 L 359.80 328.00 L 354.80 326.60 L 349.60 325.70 L 353.60 321.90 L 358.00 318.70 L 362.80 315.90 L 367.90 313.70 Z" fill="#fb9927" fill-rule="nonzero" group-id="1,9" node-id="125" stroke="none" target-height="193.9" target-width="118.399994" target-x="349.6" target-y="310.9"></path><path d="M 429.70 342.50 L 447.40 391.30 L 356.80 424.30 L 339.10 375.50 L 337.60 370.70 L 336.70 366.00 L 336.20 361.30 L 336.20 356.60 L 336.70 351.90 L 337.60 347.40 L 338.90 343.00 L 340.70 338.70 L 342.80 334.60 L 345.40 330.70 L 348.30 327.10 L 351.60 323.70 L 355.10 320.70 L 359.00 318.00 L 363.30 315.70 L 367.90 313.70 L 372.70 312.30 L 377.40 311.30 L 382.10 310.90 L 386.80 310.90 L 391.50 311.40 L 396.00 312.30 L 400.40 313.60 L 404.70 315.40 L 408.80 317.50 L 412.70 320.00 L 416.30 322.90 L 419.70 326.20 L 422.70 329.80 L 425.40 333.70 L 427.70 337.90 L 429.70 342.50 Z" fill="#64b9fc" fill-rule="nonzero" group-id="1,10" node-id="130" stroke="none" target-height="113.399994" target-width="111.19998" target-x="336.2" target-y="310.9"></path><path d="M 367.90 313.70 L 372.50 312.30 L 377.10 311.40 L 381.80 310.90 L 386.50 310.90 L 391.20 311.30 L 395.80 312.20 L 400.30 313.50 L 404.70 315.40 L 409.00 317.60 L 412.90 320.20 L 416.60 323.10 L 419.90 326.50 L 422.90 330.10 L 425.50 334.00 L 427.80 338.10 L 429.60 342.60 L 447.40 391.30 L 407.40 405.90 L 389.60 357.10 L 387.70 352.70 L 385.50 348.50 L 382.90 344.70 L 379.90 341.00 L 376.50 337.70 L 372.90 334.80 L 368.90 332.20 L 364.70 329.90 L 359.80 328.00 L 354.80 326.60 L 349.60 325.70 L 353.60 321.90 L 358.00 318.70 L 362.80 315.90 L 367.90 313.70 Z" fill="#31a7fb" fill-rule="nonzero" group-id="1,11" node-id="135" stroke="none" target-height="95" target-width="97.79999" target-x="349.6" target-y="310.9"></path><path d="M 151.50 452.90 L 189.20 490.60 L 192.10 493.20 L 195.30 495.20 L 198.60 496.90 L 202.20 498.00 L 205.70 498.70 L 209.40 498.90 L 213.10 498.70 L 216.60 498.00 L 220.20 496.90 L 223.50 495.20 L 226.70 493.20 L 229.60 490.60 L 239.90 480.30 L 244.50 475.40 L 248.60 470.40 L 252.30 465.30 L 255.60 460.00 L 258.50 454.50 L 261.80 447.40 L 264.40 440.10 L 266.40 432.80 L 267.80 425.30 L 268.70 417.70 L 269.00 410.10 L 268.70 402.50 L 267.80 394.90 L 266.40 387.40 L 264.40 380.00 L 261.80 372.80 L 258.50 365.70 L 255.60 360.20 L 252.30 354.90 L 248.60 349.80 L 244.50 344.80 L 239.90 339.90 L 192.10 292.10 L 190.10 290.40 L 188.00 289.20 L 185.70 288.40 L 183.20 288.00 L 180.80 288.00 L 178.40 288.40 L 176.10 289.20 L 173.90 290.40 L 171.90 292.10 L 151.50 312.50 L 147.00 317.40 L 142.90 322.40 L 139.20 327.50 L 135.80 332.80 L 132.90 338.30 L 129.70 345.40 L 127.10 352.70 L 125.00 360.00 L 123.60 367.50 L 122.70 375.10 L 122.40 382.70 L 122.70 390.30 L 123.60 397.90 L 125.00 405.40 L 127.10 412.80 L 129.70 420.00 L 132.90 427.10 L 135.80 432.60 L 139.20 437.90 L 142.90 443.10 L 147.00 448.00 L 151.50 452.90 Z" fill="#23f1a8" fill-rule="nonzero" group-id="1,12" node-id="140" stroke="none" target-height="210.9" target-width="146.6" target-x="122.4" target-y="288"></path><path d="M 239.90 480.30 L 229.60 490.60 L 226.70 493.10 L 223.60 495.20 L 220.40 496.80 L 216.90 497.90 L 213.40 498.70 L 209.80 498.90 L 206.20 498.80 L 202.70 498.20 L 199.20 497.10 L 204.00 492.00 L 208.10 487.00 L 211.80 481.90 L 215.10 476.60 L 218.10 471.10 L 221.30 464.00 L 223.90 456.70 L 225.90 449.40 L 227.40 441.90 L 228.30 434.30 L 228.60 426.70 L 228.30 419.10 L 227.40 411.50 L 225.90 404.00 L 223.90 396.60 L 221.30 389.40 L 218.10 382.30 L 215.10 376.80 L 211.80 371.50 L 208.10 366.30 L 204.00 361.30 L 199.50 356.50 L 153.50 310.50 L 171.90 292.10 L 173.90 290.40 L 176.10 289.20 L 178.40 288.40 L 180.80 288.00 L 183.20 288.00 L 185.70 288.40 L 188.00 289.20 L 190.10 290.40 L 192.10 292.10 L 239.90 339.90 L 244.50 344.80 L 248.60 349.80 L 252.30 354.90 L 255.60 360.20 L 258.50 365.70 L 261.80 372.80 L 264.40 380.00 L 266.40 387.40 L 267.80 394.90 L 268.70 402.50 L 269.00 410.10 L 268.70 417.70 L 267.80 425.30 L 266.40 432.80 L 264.40 440.10 L 261.80 447.40 L 258.50 454.50 L 255.60 460.00 L 252.30 465.30 L 248.60 470.40 L 244.50 475.40 L 239.90 480.30 Z" fill="#26d192" fill-rule="nonzero" group-id="1,13" node-id="145" stroke="none" target-height="210.9" target-width="115.5" target-x="153.5" target-y="288"></path><path d="M 208.90 511.20 L 204.00 510.40 L 199.80 508.20 L 198.00 506.70 L 195.20 502.90 L 193.70 498.50 L 193.60 493.70 L 195.90 483.00 L 197.40 469.50 L 197.70 460.50 L 197.40 451.30 L 196.50 442.10 L 195.10 432.90 L 193.20 423.80 L 190.70 414.90 L 187.70 406.00 L 184.10 397.10 L 178.90 385.60 L 178.30 383.00 L 178.30 380.40 L 178.70 377.70 L 179.50 375.30 L 180.70 372.90 L 182.40 370.80 L 184.30 369.00 L 186.70 367.50 L 189.40 366.50 L 192.00 365.90 L 194.70 365.90 L 197.30 366.30 L 199.80 367.10 L 202.10 368.30 L 204.20 370.00 L 206.00 371.90 L 207.50 374.30 L 215.10 391.20 L 220.50 406.80 L 223.30 417.30 L 225.50 427.10 L 226.90 436.30 L 227.90 445.60 L 228.60 461.60 L 228.20 472.70 L 227.30 481.50 L 225.10 494.80 L 222.80 502.40 L 220.50 506.00 L 217.20 508.70 L 215.30 509.80 L 211.20 511.00 L 208.90 511.20 Z" fill="#1ec186" fill-rule="nonzero" group-id="1,14" node-id="150" stroke="none" target-height="145.30002" target-width="50.300003" target-x="178.3" target-y="365.9"></path><path d="M 225.40 105.40 L 202.60 153.60 L 201.10 157.20 L 200.20 160.90 L 199.80 164.60 L 199.90 168.30 L 200.40 171.90 L 201.40 175.40 L 202.90 178.80 L 204.80 181.90 L 207.00 184.90 L 209.70 187.50 L 212.70 189.80 L 216.10 191.70 L 235.40 200.60 L 241.50 202.80 L 247.50 204.50 L 253.70 205.90 L 259.80 206.80 L 267.60 207.50 L 275.30 207.50 L 282.90 206.90 L 290.50 205.80 L 297.90 204.00 L 305.20 201.80 L 312.20 199.00 L 319.10 195.60 L 325.70 191.70 L 331.90 187.30 L 337.80 182.40 L 343.50 177.00 L 347.60 172.40 L 351.50 167.50 L 355.10 162.30 L 358.50 156.70 L 361.50 150.90 L 390.50 89.80 L 391.40 87.30 L 391.80 84.90 L 391.80 82.40 L 391.40 80.00 L 390.60 77.70 L 389.40 75.60 L 387.80 73.70 L 386.00 72.10 L 383.70 70.70 L 351.50 55.70 L 345.50 53.50 L 339.40 51.70 L 333.30 50.40 L 327.10 49.40 L 319.30 48.80 L 311.60 48.80 L 304.00 49.30 L 296.50 50.50 L 289.00 52.20 L 281.80 54.50 L 274.70 57.30 L 267.80 60.70 L 261.30 64.60 L 255.00 68.90 L 249.10 73.80 L 243.40 79.30 L 239.30 83.90 L 235.40 88.80 L 231.80 94.00 L 228.50 99.50 L 225.40 105.40 Z" fill="#26d192" fill-rule="nonzero" group-id="1,15" node-id="155" stroke="none" target-height="158.7" target-width="191.99998" target-x="199.8" target-y="48.8"></path><path d="M 229.30 197.90 L 216.10 191.70 L 212.80 189.80 L 209.80 187.60 L 207.20 185.00 L 204.90 182.20 L 203.10 179.10 L 201.60 175.80 L 200.60 172.40 L 200.00 168.90 L 199.80 165.20 L 206.20 168.00 L 212.30 170.20 L 218.40 172.00 L 224.50 173.30 L 230.60 174.30 L 238.40 174.90 L 246.10 174.90 L 253.70 174.40 L 261.30 173.20 L 268.70 171.50 L 276.00 169.20 L 283.00 166.40 L 289.90 163.00 L 296.50 159.10 L 302.70 154.80 L 308.70 149.90 L 314.30 144.50 L 318.50 139.90 L 322.30 134.90 L 325.90 129.70 L 329.30 124.20 L 332.30 118.30 L 360.20 59.60 L 383.70 70.70 L 386.00 72.10 L 387.80 73.70 L 389.40 75.60 L 390.60 77.70 L 391.40 80.00 L 391.80 82.40 L 391.80 84.90 L 391.40 87.30 L 390.50 89.80 L 361.50 150.90 L 358.50 156.70 L 355.10 162.30 L 351.50 167.50 L 347.70 172.40 L 343.50 177.00 L 337.80 182.40 L 331.90 187.30 L 325.70 191.70 L 319.10 195.60 L 312.20 199.00 L 305.20 201.80 L 297.90 204.00 L 290.50 205.80 L 282.90 206.90 L 275.30 207.50 L 267.60 207.40 L 259.80 206.80 L 253.70 205.90 L 247.60 204.50 L 241.50 202.80 L 235.40 200.60 L 229.30 197.90 Z" fill="#1ec186" fill-rule="nonzero" group-id="1,16" node-id="160" stroke="none" target-height="147.9" target-width="191.99998" target-x="199.8" target-y="59.6"></path><path d="M 204.30 189.30 L 201.60 189.10 L 199.00 188.40 L 196.70 187.30 L 194.50 185.80 L 192.70 184.00 L 191.10 181.90 L 190.00 179.50 L 189.20 177.00 L 188.90 174.20 L 189.10 171.40 L 189.70 168.90 L 190.80 166.50 L 192.20 164.30 L 194.00 162.40 L 196.10 160.80 L 198.40 159.60 L 200.90 158.80 L 212.00 157.40 L 225.20 154.20 L 233.70 151.50 L 242.30 148.10 L 250.70 144.20 L 258.80 139.80 L 266.80 134.90 L 274.40 129.60 L 281.70 123.80 L 288.90 117.40 L 298.00 108.70 L 300.20 107.30 L 302.70 106.40 L 305.30 105.90 L 307.90 105.90 L 310.50 106.20 L 313.00 107.10 L 315.40 108.30 L 317.60 110.10 L 319.40 112.20 L 320.80 114.50 L 321.80 116.90 L 322.30 119.50 L 322.30 122.10 L 322.00 124.70 L 321.20 127.30 L 319.90 129.60 L 318.20 131.80 L 311.50 138.50 L 298.40 150.10 L 292.00 155.00 L 283.00 161.20 L 274.50 166.50 L 266.30 170.90 L 250.20 178.30 L 243.10 181.00 L 232.50 184.30 L 223.90 186.50 L 216.00 188.00 L 204.30 189.30 Z" fill="#1eb07c" fill-rule="nonzero" group-id="1,17" node-id="165" stroke="none" target-height="83.4" target-width="133.4" target-x="188.9" target-y="105.9"></path><path d="M 687.00 1020.10 L 313.50 1020.10 L 310.20 1019.80 L 307.00 1019.20 L 304.00 1018.10 L 301.20 1016.70 L 298.60 1015.00 L 294.20 1010.60 L 291.10 1005.20 L 290.00 1002.20 L 289.40 999.00 L 289.10 995.70 L 289.10 916.10 L 711.40 916.10 L 711.40 995.70 L 711.10 999.00 L 710.50 1002.20 L 709.50 1005.20 L 708.00 1008.00 L 706.30 1010.60 L 701.90 1015.00 L 699.30 1016.70 L 696.50 1018.10 L 693.50 1019.20 L 690.30 1019.80 L 687.00 1020.10 Z" fill="#d9e7eb" fill-rule="nonzero" group-id="1,18" node-id="170" stroke="none" target-height="104" target-width="422.30002" target-x="289.1" target-y="916.1"></path><path d="M 711.40 916.10 L 711.40 995.70 L 711.10 999.00 L 710.50 1002.20 L 709.50 1005.20 L 708.00 1008.00 L 706.30 1010.60 L 704.20 1012.90 L 701.90 1015.00 L 696.50 1018.10 L 693.50 1019.20 L 690.40 1019.80 L 687.00 1020.10 L 616.30 1020.10 L 619.70 1019.80 L 622.80 1019.20 L 625.80 1018.10 L 631.20 1015.00 L 635.60 1010.60 L 637.40 1008.00 L 638.80 1005.20 L 639.80 1002.20 L 640.50 999.00 L 640.70 995.70 L 640.70 916.10 L 711.40 916.10 Z" fill="#c5d3dd" fill-rule="nonzero" group-id="1,19" node-id="175" stroke="none" target-height="104" target-width="95.10004" target-x="616.3" target-y="916.1"></path><path d="M 0.40 509.40 L 25.00 677.10 L 27.20 689.70 L 29.80 702.10 L 32.90 714.30 L 36.50 726.20 L 40.50 737.80 L 45.10 749.40 L 50.00 760.60 L 55.40 771.60 L 61.20 782.30 L 67.40 792.70 L 74.10 802.90 L 81.10 812.70 L 88.50 822.20 L 96.20 831.40 L 104.30 840.30 L 112.80 848.90 L 121.60 857.10 L 130.60 865.00 L 140.00 872.40 L 149.70 879.60 L 159.70 886.30 L 170.00 892.60 L 180.50 898.50 L 191.20 904.00 L 202.30 909.10 L 213.50 913.80 L 224.90 918.00 L 236.50 921.70 L 248.30 925.00 L 260.40 927.80 L 272.50 930.10 L 284.80 931.90 L 297.30 933.20 L 309.90 934.00 L 322.80 934.30 L 677.70 934.30 L 690.60 934.00 L 703.20 933.20 L 715.70 931.90 L 728.00 930.10 L 740.10 927.80 L 752.20 925.00 L 764.00 921.70 L 775.60 918.00 L 787.10 913.80 L 798.30 909.10 L 809.30 904.00 L 820.10 898.50 L 830.60 892.60 L 840.80 886.30 L 850.80 879.60 L 860.50 872.40 L 869.90 865.00 L 879.00 857.10 L 887.70 848.90 L 896.20 840.30 L 904.30 831.40 L 912.00 822.20 L 919.40 812.70 L 926.40 802.90 L 933.10 792.70 L 939.30 782.30 L 945.10 771.60 L 950.50 760.60 L 955.40 749.40 L 960.00 737.80 L 964.00 726.20 L 967.60 714.30 L 970.70 702.10 L 973.30 689.70 L 975.50 677.10 L 1000.10 509.40 L 1000.50 505.20 L 1000.40 501.20 L 999.90 497.30 L 999.00 493.50 L 997.60 489.90 L 994.00 483.20 L 989.00 477.40 L 982.90 472.80 L 979.50 471.00 L 975.90 469.50 L 972.10 468.40 L 968.10 467.80 L 963.90 467.50 L 36.60 467.50 L 32.40 467.80 L 28.40 468.40 L 24.60 469.50 L 21.00 471.00 L 14.50 475.00 L 8.90 480.20 L 4.50 486.40 L 1.50 493.50 L 0.60 497.30 L 0.10 501.20 L 0.00 505.20 L 0.40 509.40 Z" fill="#f5f7f8" fill-rule="nonzero" group-id="1,20" node-id="180" stroke="none" target-height="466.8" target-width="1000.5" target-x="0" target-y="467.5"></path><path d="M 1000.10 509.40 L 975.50 677.10 L 973.30 689.70 L 970.70 702.10 L 967.60 714.30 L 964.00 726.20 L 960.00 737.80 L 955.40 749.40 L 950.50 760.60 L 945.10 771.60 L 939.30 782.30 L 933.10 792.70 L 926.40 802.90 L 919.40 812.70 L 912.00 822.20 L 904.30 831.40 L 896.20 840.30 L 887.70 848.90 L 879.00 857.10 L 869.90 865.00 L 860.50 872.40 L 850.80 879.60 L 840.80 886.30 L 830.50 892.60 L 820.10 898.50 L 809.30 904.00 L 798.30 909.10 L 787.00 913.80 L 775.60 918.00 L 764.00 921.70 L 752.20 925.00 L 740.10 927.80 L 728.00 930.10 L 715.70 931.90 L 703.20 933.20 L 690.60 934.00 L 677.70 934.30 L 584.20 934.30 L 597.00 934.00 L 609.70 933.20 L 622.10 931.90 L 634.40 930.10 L 646.50 927.80 L 658.60 925.00 L 670.50 921.70 L 682.10 918.00 L 693.50 913.80 L 704.70 909.10 L 715.70 904.00 L 726.50 898.50 L 737.00 892.60 L 747.20 886.30 L 757.20 879.60 L 766.90 872.40 L 776.30 865.00 L 785.40 857.10 L 794.20 848.90 L 802.60 840.30 L 810.70 831.40 L 818.50 822.20 L 825.90 812.70 L 832.90 802.90 L 839.50 792.70 L 845.70 782.30 L 851.50 771.60 L 856.90 760.60 L 861.90 749.40 L 866.40 737.80 L 870.50 726.20 L 874.10 714.30 L 877.20 702.10 L 879.80 689.70 L 881.90 677.10 L 906.60 509.40 L 906.90 505.20 L 906.80 501.20 L 906.30 497.30 L 905.40 493.50 L 904.10 489.90 L 902.40 486.40 L 898.10 480.20 L 892.50 475.00 L 885.90 471.00 L 882.30 469.50 L 878.60 468.40 L 874.60 467.80 L 870.40 467.50 L 964.00 467.50 L 968.10 467.80 L 972.10 468.40 L 975.90 469.50 L 979.50 471.00 L 982.90 472.80 L 986.10 475.00 L 991.60 480.20 L 996.00 486.40 L 997.60 489.90 L 999.00 493.50 L 999.90 497.30 L 1000.40 501.20 L 1000.50 505.20 L 1000.10 509.40 Z" fill="#d9e7eb" fill-rule="nonzero" group-id="1,21" node-id="185" stroke="none" target-height="466.8" target-width="416.3" target-x="584.2" target-y="467.5"></path><path d="M 594.40 631.50 L 554.40 631.50 L 554.40 591.40 L 554.10 588.80 L 553.50 586.40 L 552.40 584.10 L 551.00 582.10 L 549.30 580.40 L 547.20 579.00 L 545.00 577.90 L 542.60 577.20 L 540.00 577.00 L 483.20 577.00 L 480.60 577.20 L 478.20 577.90 L 476.00 579.00 L 473.90 580.40 L 472.20 582.10 L 470.80 584.10 L 469.70 586.40 L 469.10 588.80 L 468.80 591.40 L 468.80 631.50 L 428.80 631.50 L 426.10 631.70 L 423.70 632.40 L 421.50 633.40 L 419.50 634.90 L 417.80 636.60 L 416.30 638.60 L 415.30 640.80 L 414.60 643.20 L 414.40 645.90 L 414.40 702.60 L 414.60 705.20 L 415.30 707.60 L 416.30 709.90 L 417.80 711.90 L 419.50 713.60 L 421.50 715.00 L 423.70 716.10 L 426.10 716.80 L 428.80 717.00 L 468.80 717.00 L 468.80 757.10 L 469.10 759.70 L 469.70 762.10 L 470.80 764.30 L 472.20 766.40 L 473.90 768.10 L 476.00 769.50 L 478.20 770.60 L 480.60 771.20 L 483.20 771.50 L 540.00 771.50 L 542.60 771.20 L 545.00 770.60 L 547.20 769.50 L 549.30 768.10 L 551.00 766.40 L 552.40 764.30 L 553.50 762.10 L 554.10 759.70 L 554.40 757.10 L 554.40 717.00 L 594.40 717.00 L 597.10 716.80 L 599.50 716.10 L 601.70 715.00 L 603.70 713.60 L 605.40 711.90 L 606.90 709.90 L 607.90 707.60 L 608.60 705.20 L 608.80 702.60 L 608.80 645.90 L 608.60 643.20 L 607.90 640.80 L 606.90 638.60 L 605.40 636.60 L 603.70 634.90 L 601.70 633.40 L 599.50 632.40 L 597.10 631.70 L 594.40 631.50 Z" fill="#27e19d" fill-rule="nonzero" group-id="1,22" node-id="190" stroke="none" target-height="194.5" target-width="194.4" target-x="414.4" target-y="577"></path><path d="M 608.80 645.90 L 608.80 702.60 L 608.60 705.20 L 607.90 707.70 L 606.90 709.90 L 605.40 711.90 L 603.70 713.60 L 601.70 715.10 L 599.50 716.10 L 597.10 716.80 L 594.40 717.00 L 554.40 717.00 L 554.40 757.10 L 554.10 759.70 L 553.50 762.10 L 552.40 764.30 L 551.00 766.40 L 549.30 768.10 L 547.20 769.50 L 545.00 770.60 L 542.60 771.20 L 540.00 771.50 L 493.50 771.50 L 496.20 771.20 L 498.60 770.60 L 500.80 769.50 L 502.80 768.10 L 504.60 766.40 L 506.00 764.30 L 507.10 762.10 L 507.70 759.70 L 508.00 757.10 L 508.00 731.40 L 508.20 728.80 L 508.90 726.40 L 509.90 724.20 L 511.40 722.10 L 513.10 720.40 L 515.10 719.00 L 517.30 717.90 L 519.70 717.30 L 522.40 717.00 L 548.00 717.00 L 550.60 716.80 L 553.00 716.10 L 555.30 715.10 L 557.30 713.60 L 559.00 711.90 L 560.40 709.90 L 561.50 707.70 L 562.20 705.20 L 562.40 702.60 L 562.40 645.90 L 562.20 643.20 L 561.50 640.80 L 560.40 638.60 L 559.00 636.60 L 557.30 634.90 L 555.30 633.40 L 553.00 632.40 L 550.60 631.70 L 548.00 631.50 L 522.40 631.50 L 519.70 631.20 L 517.30 630.60 L 515.10 629.50 L 513.10 628.10 L 511.40 626.30 L 509.90 624.30 L 508.90 622.10 L 508.20 619.70 L 508.00 617.00 L 508.00 591.40 L 507.70 588.80 L 507.10 586.40 L 506.00 584.10 L 504.60 582.10 L 502.80 580.40 L 500.80 579.00 L 498.60 577.90 L 496.20 577.20 L 493.50 577.00 L 540.00 577.00 L 542.60 577.20 L 545.00 577.90 L 547.20 578.90 L 549.30 580.40 L 551.00 582.10 L 552.40 584.10 L 553.50 586.40 L 554.10 588.80 L 554.40 591.40 L 554.40 631.50 L 594.40 631.50 L 597.10 631.70 L 599.50 632.40 L 601.70 633.40 L 603.70 634.90 L 605.40 636.60 L 606.90 638.60 L 607.90 640.80 L 608.60 643.20 L 608.80 645.90 Z" fill="#26d192" fill-rule="nonzero" group-id="1,23" node-id="195" stroke="none" target-height="194.5" target-width="115.29999" target-x="493.5" target-y="577"></path><path d="M 654.70 107.10 L 581.30 180.50 L 577.60 183.90 L 573.70 186.70 L 569.60 189.10 L 565.40 191.10 L 560.90 192.60 L 556.40 193.70 L 551.90 194.40 L 547.20 194.60 L 542.60 194.40 L 538.10 193.70 L 533.60 192.60 L 529.10 191.10 L 524.90 189.10 L 520.80 186.70 L 516.90 183.90 L 513.20 180.50 L 509.80 176.80 L 507.00 172.90 L 504.50 168.80 L 502.60 164.60 L 501.00 160.10 L 499.90 155.60 L 499.30 151.10 L 499.10 146.40 L 499.30 141.80 L 499.90 137.20 L 501.00 132.80 L 502.60 128.30 L 504.50 124.00 L 507.00 120.00 L 509.80 116.10 L 513.20 112.40 L 586.60 39.00 L 590.30 35.60 L 594.20 32.80 L 598.20 30.30 L 602.50 28.40 L 607.00 26.80 L 611.40 25.70 L 616.00 25.10 L 620.60 24.80 L 625.30 25.10 L 629.80 25.70 L 634.30 26.80 L 638.80 28.40 L 643.00 30.30 L 647.10 32.80 L 651.00 35.60 L 654.70 39.00 L 658.10 42.70 L 660.90 46.60 L 663.30 50.60 L 665.30 54.90 L 666.90 59.40 L 668.00 63.90 L 668.60 68.40 L 668.80 73.00 L 668.60 77.70 L 668.00 82.20 L 666.90 86.70 L 665.30 91.20 L 663.30 95.40 L 660.90 99.50 L 658.10 103.40 L 654.70 107.10 Z" fill="#fcb44d" fill-rule="nonzero" group-id="1,24" node-id="200" stroke="none" target-height="169.8" target-width="169.69998" target-x="499.1" target-y="24.8"></path><path d="M 654.70 39.00 L 658.00 42.50 L 660.80 46.30 L 663.20 50.30 L 665.20 54.60 L 666.80 59.00 L 667.90 63.60 L 668.60 68.20 L 668.80 73.00 L 668.60 77.70 L 667.90 82.20 L 666.80 86.70 L 665.30 91.20 L 663.30 95.40 L 660.90 99.50 L 658.10 103.40 L 654.70 107.10 L 581.30 180.50 L 577.60 183.90 L 573.70 186.70 L 569.60 189.10 L 565.40 191.10 L 560.90 192.60 L 556.40 193.70 L 551.90 194.40 L 547.20 194.60 L 542.60 194.40 L 538.00 193.80 L 533.60 192.70 L 529.10 191.10 L 524.80 189.10 L 520.80 186.70 L 516.90 183.90 L 513.20 180.50 L 509.50 176.40 L 506.30 171.90 L 503.70 167.10 L 501.60 161.90 L 505.90 163.20 L 514.60 164.40 L 523.30 164.10 L 527.70 163.30 L 531.90 162.20 L 536.10 160.60 L 540.10 158.70 L 544.00 156.30 L 547.60 153.60 L 551.20 150.40 L 624.60 77.00 L 627.80 73.40 L 630.60 69.60 L 633.00 65.60 L 635.00 61.40 L 636.60 56.90 L 637.80 52.40 L 638.50 47.70 L 638.70 42.90 L 638.40 37.70 L 637.60 32.50 L 636.10 27.40 L 641.30 29.50 L 646.10 32.10 L 650.60 35.30 L 654.70 39.00 Z" fill="#fb9927" fill-rule="nonzero" group-id="1,25" node-id="205" stroke="none" target-height="167.20001" target-width="167.19998" target-x="501.6" target-y="27.4"></path><path d="M 654.70 107.10 L 618.00 143.80 L 549.90 75.70 L 586.60 39.00 L 590.30 35.60 L 594.20 32.70 L 598.20 30.30 L 602.50 28.40 L 607.00 26.80 L 611.50 25.70 L 616.00 25.10 L 620.60 24.80 L 625.30 25.10 L 629.80 25.70 L 634.30 26.80 L 638.80 28.40 L 643.00 30.30 L 647.10 32.70 L 651.00 35.60 L 654.70 39.00 L 658.10 42.70 L 660.90 46.60 L 663.30 50.60 L 665.30 54.90 L 666.90 59.40 L 668.00 63.90 L 668.60 68.40 L 668.80 73.00 L 668.60 77.70 L 668.00 82.20 L 666.90 86.70 L 665.30 91.20 L 663.30 95.40 L 660.90 99.50 L 658.10 103.40 L 654.70 107.10 Z" fill="#fb4a59" fill-rule="nonzero" group-id="1,26" node-id="210" stroke="none" target-height="119" target-width="118.89996" target-x="549.9" target-y="24.8"></path><path d="M 654.70 39.00 L 658.00 42.50 L 660.80 46.30 L 663.20 50.30 L 665.20 54.60 L 666.80 59.00 L 667.90 63.60 L 668.60 68.20 L 668.80 73.00 L 668.60 77.70 L 667.90 82.20 L 666.80 86.70 L 665.30 91.20 L 663.30 95.40 L 660.90 99.50 L 658.10 103.40 L 654.70 107.10 L 618.00 143.80 L 587.90 113.70 L 624.60 77.00 L 627.80 73.40 L 630.60 69.60 L 633.00 65.60 L 635.00 61.40 L 636.60 56.90 L 637.80 52.40 L 638.50 47.70 L 638.70 42.90 L 638.40 37.70 L 637.60 32.50 L 636.10 27.40 L 641.30 29.50 L 646.10 32.10 L 650.60 35.30 L 654.70 39.00 Z" fill="#f82f40" fill-rule="nonzero" group-id="1,27" node-id="215" stroke="none" target-height="116.4" target-width="80.89996" target-x="587.9" target-y="27.4"></path><path d="M 532.80 312.10 L 586.10 312.10 L 590.00 311.90 L 593.70 311.10 L 597.20 309.90 L 600.50 308.20 L 603.60 306.20 L 606.30 303.70 L 608.70 301.00 L 610.80 298.00 L 612.40 294.60 L 613.70 291.10 L 614.40 287.40 L 614.70 283.50 L 614.70 268.90 L 614.50 262.30 L 613.80 255.90 L 612.80 249.60 L 611.40 243.50 L 609.60 237.60 L 606.90 230.30 L 603.60 223.30 L 599.80 216.70 L 595.50 210.30 L 590.80 204.30 L 585.60 198.80 L 580.10 193.60 L 574.10 188.80 L 567.70 184.60 L 561.10 180.80 L 554.10 177.50 L 546.80 174.80 L 540.90 173.00 L 534.80 171.60 L 528.50 170.60 L 522.10 169.90 L 515.50 169.70 L 447.90 169.70 L 445.20 169.90 L 442.90 170.60 L 440.60 171.70 L 438.60 173.10 L 436.90 174.80 L 435.50 176.80 L 434.40 179.00 L 433.80 181.40 L 433.50 184.00 L 433.50 212.90 L 433.80 219.50 L 434.40 225.90 L 435.40 232.20 L 436.80 238.30 L 438.60 244.30 L 441.40 251.60 L 444.60 258.50 L 448.40 265.20 L 452.70 271.50 L 457.50 277.50 L 462.60 283.10 L 468.20 288.20 L 474.20 293.00 L 480.50 297.30 L 487.10 301.00 L 494.10 304.30 L 501.40 307.10 L 507.40 308.90 L 513.50 310.30 L 519.70 311.30 L 526.20 311.90 L 532.80 312.10 Z" fill="#23f1a8" fill-rule="nonzero" group-id="1,28" node-id="220" stroke="none" target-height="142.40001" target-width="181.20001" target-x="433.5" target-y="169.7"></path><path d="M 614.70 268.90 L 614.70 283.50 L 614.40 287.40 L 613.70 291.10 L 612.40 294.60 L 610.80 298.00 L 608.70 301.00 L 606.30 303.70 L 603.60 306.20 L 600.50 308.20 L 597.20 309.90 L 593.70 311.10 L 590.00 311.90 L 586.10 312.10 L 528.90 312.00 L 532.60 311.50 L 536.00 310.60 L 539.30 309.20 L 542.40 307.50 L 545.20 305.40 L 547.70 303.00 L 549.90 300.30 L 551.80 297.40 L 553.30 294.20 L 554.40 290.80 L 555.10 287.30 L 555.40 283.50 L 555.10 262.30 L 554.50 255.90 L 553.50 249.60 L 552.10 243.50 L 550.30 237.60 L 547.50 230.30 L 544.30 223.30 L 540.50 216.70 L 536.20 210.30 L 531.40 204.30 L 526.30 198.80 L 520.70 193.60 L 514.70 188.80 L 508.40 184.60 L 501.80 180.80 L 494.80 177.50 L 487.50 174.80 L 481.50 173.00 L 475.40 171.60 L 469.20 170.60 L 462.70 169.90 L 456.10 169.70 L 515.50 169.70 L 522.10 169.90 L 528.50 170.60 L 534.80 171.60 L 540.90 173.00 L 546.80 174.80 L 554.10 177.50 L 561.10 180.80 L 567.70 184.60 L 574.10 188.80 L 580.10 193.60 L 585.60 198.80 L 590.80 204.30 L 595.50 210.30 L 599.80 216.70 L 603.60 223.30 L 606.90 230.30 L 609.60 237.60 L 611.40 243.50 L 612.80 249.60 L 613.80 255.90 L 614.40 262.30 L 614.70 268.90 Z" fill="#26d192" fill-rule="nonzero" group-id="1,29" node-id="225" stroke="none" target-height="142.40001" target-width="158.6" target-x="456.1" target-y="169.7"></path><path d="M 603.70 317.20 L 600.80 317.00 L 598.20 316.20 L 595.70 315.00 L 593.50 313.40 L 591.60 311.40 L 585.50 302.00 L 581.60 296.80 L 577.00 291.40 L 570.80 284.90 L 564.10 278.60 L 557.00 272.70 L 549.50 267.20 L 541.70 262.10 L 533.60 257.50 L 525.20 253.40 L 516.40 249.60 L 504.60 245.20 L 502.40 243.70 L 500.40 241.90 L 498.90 239.80 L 497.70 237.40 L 496.90 234.90 L 496.60 232.30 L 496.70 229.60 L 497.30 226.80 L 498.50 224.20 L 500.00 222.00 L 501.80 220.10 L 503.90 218.50 L 506.30 217.30 L 508.80 216.60 L 511.40 216.20 L 514.10 216.40 L 516.90 217.00 L 534.10 223.50 L 549.00 230.70 L 558.40 236.20 L 566.90 241.60 L 574.40 247.10 L 581.70 252.90 L 593.50 263.80 L 601.00 271.90 L 606.70 278.70 L 614.50 289.70 L 617.40 294.60 L 618.40 297.20 L 619.00 299.80 L 619.10 302.50 L 618.80 305.10 L 618.00 307.60 L 616.80 310.00 L 615.20 312.10 L 613.20 313.90 L 610.80 315.50 L 608.60 316.50 L 606.20 317.00 L 603.70 317.20 Z" fill="#1ec186" fill-rule="nonzero" group-id="1,30" node-id="230" stroke="none" target-height="101.000015" target-width="122.49997" target-x="496.6" target-y="216.2"></path></g></g></svg>